<svg width="50" height="53" viewBox="0 0 50 53" fill="none" xmlns="http://www.w3.org/2000/svg">
<path d="M0.0412431 38.4159C0.286202 35.5123 1.72097 32.8921 3.54566 30.7918C6.44518 27.4471 10.2945 23.3883 13.484 20.3586C15.0487 18.8726 16.6635 17.7542 18.7231 17.1661C23.9622 15.6749 29.3914 17.9905 32.1909 22.816C32.1959 22.9052 32.1409 22.9577 32.1009 23.0207C31.8709 23.3778 30.1712 25.121 29.8013 25.4203C27.3367 27.4104 25.9969 24.5802 24.0322 23.8083C22.0076 23.0155 19.873 23.3463 18.2082 24.806C14.5839 27.9774 11.3394 32.5088 7.73496 35.8063C3.54066 41.2881 9.83461 48.5604 15.4237 44.7011L22.3175 37.6178C24.7771 38.6312 27.5167 39.1458 30.1463 38.626L30.0013 38.9358C23.4374 44.8534 18.0482 55.7959 7.73997 51.5691C3.74564 49.9308 0.411181 45.5254 0.0412431 40.9783C-0.0137477 40.2904 -0.0137477 39.1038 0.0412431 38.4212V38.4159Z" fill="#D01B22"/>
<path d="M39.0096 0.0485686C44.2887 0.521136 49.0529 5.38858 49.8078 10.8546C50.3977 15.0972 49.0879 18.6047 46.4133 21.6869C43.5138 25.0316 39.6645 29.0905 36.475 32.1201C31.0709 37.2606 23.0523 37.0559 18.508 30.8285C18.3181 30.5659 17.6882 29.7941 17.8131 29.5105C19.2629 28.2188 20.1828 26.1448 22.3874 26.4493C23.4922 26.6016 24.1721 27.678 25.0719 28.2346C27.1316 29.521 29.7011 29.3267 31.5958 27.8145L42.3991 16.4467C46.3934 10.5921 39.4595 3.64008 34.0904 8.12947L27.6415 14.8609C25.6219 14.0156 23.4072 13.5587 21.2226 13.6428C20.8426 13.6585 20.3927 13.7478 19.9828 13.774C19.8728 13.7793 19.7928 13.9841 19.8128 13.7005C22.8123 10.6866 25.6068 7.43112 28.6263 4.4382C30.911 2.17512 33.2906 0.342611 36.57 0.0433187C37.2199 -0.0144396 38.3547 -0.0144396 39.0046 0.0433187L39.0096 0.0485686Z" fill="#D01B22"/>
</svg>
