<svg width="54" height="53" viewBox="0 0 54 53" fill="none" xmlns="http://www.w3.org/2000/svg">
<path d="M53.7647 41.831C53.6397 43.2384 52.9497 45.1657 52.2747 46.3892C49.0799 52.171 41.8502 53.7044 36.6005 50.0074C30.5457 53.3526 23.2311 53.3526 17.1764 50.0074C12.2666 53.4418 5.64691 52.4178 2.12707 47.387C-1.95774 41.537 0.0621762 33.245 6.29188 30.2255C6.49187 22.9733 10.2167 16.2831 16.0264 12.4706C15.3664 3.81627 23.6761 -2.55365 31.3357 1.00679C35.5205 2.95505 38.1654 7.66029 37.7504 12.4706C43.5651 16.2726 47.28 22.9891 47.485 30.2255C50.7998 31.7904 53.3997 35.4559 53.7696 39.2946C53.8296 39.9405 53.8246 41.1851 53.7696 41.831H53.7647ZM26.6559 4.44644C17.7963 4.71426 18.3263 19.3446 27.6709 18.4309C35.7755 17.6379 35.2755 4.18387 26.6559 4.44644ZM17.4314 17.0025C17.2614 16.8817 16.8164 17.3176 16.6514 17.4436C13.2965 20.0588 11.0017 24.8008 10.6117 29.1384C18.3163 29.0072 23.6911 36.8422 21.1112 44.5355C20.8762 45.2444 20.5012 45.7748 20.2512 46.3945C20.2012 46.5153 20.1012 46.5048 20.2712 46.6308C24.486 48.5423 29.2808 48.5423 33.4956 46.6308C33.6656 46.51 33.5656 46.5205 33.5156 46.3945C33.3806 46.0636 33.1056 45.7013 32.9556 45.3285C29.7658 37.4251 35.0605 29.0649 43.1602 29.1384C42.7002 24.3282 40.2653 19.7595 36.4905 16.992L34.8655 19.2606C29.8858 24.9006 20.8412 23.8083 17.4264 16.9972L17.4314 17.0025ZM10.4867 33.5864C1.67209 34.1168 2.51705 48.4163 11.6066 47.5708C19.9212 46.7936 19.2063 33.0612 10.4867 33.5864ZM42.5102 33.5864C33.6506 34.122 34.5555 48.4058 43.5251 47.5708C52.0097 46.7778 51.1548 33.0665 42.5102 33.5864Z" fill="#D01B22"/>
</svg>
