<svg width="63" height="53" viewBox="0 0 63 53" fill="none" xmlns="http://www.w3.org/2000/svg">
<path d="M23.0388 0.0691154C43.1438 -1.41184 56.8738 21.2017 46.5988 39.5824C37.1438 56.4978 13.9038 56.8917 3.87883 40.3491C-6.18117 23.754 4.42883 1.43979 23.0388 0.0691154ZM27.0988 10.961H22.9338V15.3356C17.1238 15.3881 14.4038 23.15 19.0388 27.0152C21.7438 29.2682 24.2838 28.1076 27.2938 28.4594C28.9138 28.6485 29.7438 30.5338 28.7888 31.9465C28.5988 32.2301 27.8538 32.834 27.5538 32.834H16.6838V37.2086H22.9338V41.5832H27.0988V37.2086C32.9088 37.1561 35.6288 29.3942 30.9938 25.529C28.2888 23.2761 25.7488 24.4367 22.7388 24.0848C21.0938 23.8905 20.2338 21.9054 21.3038 20.5295C21.4588 20.3299 22.1688 19.7102 22.3488 19.7102H33.3488V15.3356H27.0988V10.961Z" fill="#D01B22"/>
<path d="M43.1085 50.3377C45.6185 48.0113 47.8735 45.5272 49.6685 42.5338C49.9635 42.0402 51.0685 39.6927 51.2385 39.5351C51.3585 39.4196 51.4635 39.3828 51.6235 39.3933C57.6435 39.6139 63.3335 37.5868 62.4985 46.441C62.3435 48.0638 60.6835 50.3377 59.0485 50.3377H43.1035H43.1085Z" fill="#D01B22"/>
<path d="M59.054 13.1509C60.334 13.3294 61.759 14.5846 62.214 15.8502C62.674 17.1264 62.679 20.3351 62.139 21.585C60.704 24.9093 57.164 23.9587 54.364 24.0953L54.169 24.0007C53.814 20.2353 52.859 16.5539 51.314 13.1509H59.059H59.054Z" fill="#D01B22"/>
<path d="M52.2189 37.2138C53.4339 33.7162 54.1539 30.0191 54.1689 26.2747H59.0489C60.2039 26.2747 61.8089 27.8554 62.2089 28.974C62.7089 30.3604 62.6789 33.6689 62.0039 34.9871C61.5589 35.8641 60.0139 37.2138 59.0489 37.2138H52.2139H52.2189Z" fill="#D01B22"/>
</svg>
