<svg width="50" height="53" viewBox="0 0 50 53" fill="none" xmlns="http://www.w3.org/2000/svg">
<path d="M29.8992 20.6378H33.9752C34.0052 20.6378 34.3953 20.8847 34.4703 20.9372C34.9254 21.2577 35.2105 21.7619 35.2655 22.3292C35.5005 24.8769 35.0855 27.8237 35.2505 30.4186C35.2655 30.8651 34.3003 31.8894 33.9752 31.8894H29.8992V36.1705C29.8992 36.5119 28.924 37.5257 28.4989 37.51C26.0534 37.3524 23.3227 37.7463 20.9122 37.5205C20.247 37.4574 19.1868 36.8061 19.1868 36.0497V31.8894H15.2258C14.7807 31.8894 13.9155 31.0017 13.8805 30.4869C14.0206 27.9393 13.5205 24.6983 13.8405 22.2242C13.9206 21.6149 14.6357 20.6326 15.2258 20.6326H19.1868V16.4723C19.1868 15.7159 20.247 15.0646 20.9122 15.0015C23.3227 14.7756 26.0534 15.1749 28.4989 15.012C28.924 14.9963 29.8992 16.0101 29.8992 16.3515V20.6326V20.6378Z" fill="#D01B22"/>
<path d="M3.78337 41.3917C3.60333 41.3602 3.67836 41.5493 3.67336 41.6806C3.65836 42.0641 3.71338 42.4107 3.62336 42.7995C3.15826 44.7115 0.297569 44.6117 0.0975226 42.3897C-0.0325075 40.9242 -0.0325075 37.8723 0.0975226 36.4015C0.192545 35.3562 0.867696 34.7258 1.84292 34.5998C3.0282 34.4527 6.32899 34.4422 7.49425 34.6155C9.72477 34.9517 9.74978 38.1087 7.39923 38.4396C7.06916 38.4869 6.71408 38.4081 6.40401 38.4501C6.29398 38.4659 6.16394 38.4186 6.23896 38.6234C6.404 39.0647 7.70429 40.7036 8.07938 41.1501C20.4773 55.8528 43.4626 47.9945 45.5281 28.5432C45.6231 27.6555 45.4931 25.9431 45.8831 25.2812C46.6983 23.8892 48.7588 24.1676 49.1389 25.6909C49.489 27.1092 48.9438 30.513 48.6238 32.0206C46.7033 41.0923 40.0868 48.6144 31.6398 51.3458C21.3174 54.6814 9.85478 50.7418 3.78838 41.3812L3.78337 41.3917Z" fill="#D01B22"/>
<path d="M43.5175 13.1367C40.0217 8.02572 34.3904 4.53258 28.394 3.87597C17.1314 2.6468 6.65399 10.9516 4.91859 22.7074C4.73355 23.9629 4.81857 25.2656 4.66853 26.4317C4.36846 28.7272 1.28775 28.7009 1.1027 26.4474C0.382538 17.7487 6.22391 8.13603 13.1255 3.78142C23.888 -3.01051 37.7162 -0.431362 45.583 9.73815C45.648 9.14983 45.598 8.73485 45.9231 8.22533C46.8783 6.72827 49.0188 7.32184 49.2088 9.0973C49.3439 10.3737 49.3589 14.0507 49.1988 15.3009C49.1138 15.9733 48.5887 16.6404 47.9586 16.8137C47.0984 17.0501 42.8224 17.0081 41.7771 16.8978C40.1167 16.7297 39.5216 14.4552 40.9519 13.4414C41.0269 13.3889 41.417 13.142 41.447 13.142H43.5125L43.5175 13.1367Z" fill="#D01B22"/>
</svg>
