<svg width="114" height="100" viewBox="0 0 114 100" fill="none" xmlns="http://www.w3.org/2000/svg">
<path d="M0 26.0976C0.774973 23.2747 2.24244 20.8673 4.78247 19.3026C5.35118 18.952 7.50517 17.9354 8.04441 17.9354H27.5513V9.22206C27.5513 4.51918 33.2502 0.579492 37.57 0.278932C50.0226 -0.590335 63.5331 0.900678 76.0947 0.349651C80.0226 0.443944 85.3031 5.29416 85.3031 9.22206V17.9354H104.81C108.552 17.9354 112.557 23.3101 112.863 26.8608C113.261 31.4635 113.226 39.891 112.863 44.5231C112.583 48.1151 110.742 51.1413 108.452 53.7845C108.258 66.6879 108.823 79.6768 108.163 92.5361C107.023 96.8382 103.284 99.6906 98.8695 100H13.7669C8.97852 99.5727 5.07123 96.0456 4.43475 91.2513L4.40234 53.7874C3.04687 52.0695 1.72971 50.5255 0.934106 48.4363L0 45.2922V26.1035V26.0976ZM78.6937 17.9383V10.109C78.6937 10.0118 78.122 8.79185 77.9953 8.60032C77.1113 7.25074 75.6969 7.00322 74.1823 6.90009C62.54 6.0986 49.9843 7.51889 38.2477 6.91482C36.8687 7.09162 35.6665 7.37745 34.862 8.60032C34.7353 8.79185 34.1637 10.0118 34.1637 10.109V17.9383H78.6907H78.6937ZM67.8941 59.8458C71.5863 59.6867 75.3139 59.2771 78.9618 58.6789C86.3668 57.4619 105.158 53.201 106.224 44.0517C106.658 40.3418 106.596 31.7493 106.257 27.9658C106.077 25.9562 104.96 24.5388 102.842 24.5477H9.80356C7.93538 24.6243 6.81566 25.965 6.61529 27.7536C6.98951 32.9191 6.11435 38.7742 6.61529 43.8542C7.32838 51.047 18.9441 55.084 24.8611 56.6958C31.3526 58.4638 38.2595 59.4833 44.9662 59.8458V56.2067C44.9662 55.3138 46.5485 53.7521 47.515 53.6843C53.0901 54.0674 59.4431 53.1274 64.9269 53.6578C66.1026 53.7727 67.8912 54.9514 67.8912 56.2067V59.8458H67.8941ZM11.0235 58.5227V90.6149C11.0235 92.0469 13.4663 93.5939 14.8719 93.3788H97.7704C99.2349 93.6499 101.837 92.1383 101.837 90.6149V58.5227C91.3202 63.9299 79.3773 65.6419 67.6996 66.7145C65.1626 78.4628 47.6947 78.4628 45.1577 66.7145C33.4506 65.6507 21.5755 63.9181 11.0205 58.5227H11.0235ZM61.2789 60.2878H51.5814V65.25C51.5814 65.3443 52.0853 66.4021 52.2031 66.6143C53.8798 69.6582 58.9834 69.6582 60.6601 66.6143C60.775 66.4051 61.2818 65.3472 61.2818 65.25V60.2878H61.2789Z" fill="#111111"/>
</svg>
