<svg width="99" height="100" viewBox="0 0 99 100" fill="none" xmlns="http://www.w3.org/2000/svg">
<path d="M37.0805 0C38.4873 0.320526 39.9085 0.474672 41.3033 0.878387C44.2637 1.73965 47.0172 3.3594 49.2969 5.44159C62.6605 -2.42719 80.0835 5.10639 83.7701 20.2665C99.9834 25.4781 103.694 47.5381 89.4599 57.516C87.3845 58.9694 82.6446 61.147 80.1676 61.147H67.4053V72.6737H77.5776C80.4177 62.1893 95.4358 62.2211 97.9849 72.9037C100.952 85.3381 84.2174 91.7119 78.3111 80.4274C78.0706 79.965 77.77 78.6707 77.4574 78.563L64.2573 78.519C63.3748 78.5948 61.6481 77.0509 61.6481 76.29V61.1494H52.0505V78.9276C59.3779 80.9804 62.2493 90.2267 57.228 96.2115C52.9883 101.264 45.3554 101.262 41.1181 96.2115C36.0969 90.2292 38.9682 80.9829 46.2957 78.9276V61.1494H36.6981V76.29C36.6981 77.0509 34.9738 78.5948 34.0889 78.519L20.8888 78.563C20.3116 79.576 19.9774 80.6697 19.3136 81.6484C13.821 89.7521 1.68147 86.6667 0.0389795 77.1684V74.0414C2.06384 62.5832 17.4331 61.492 20.7685 72.6737H30.9409V61.147H18.1785C13.9701 61.147 7.7296 57.2077 5.02658 54.022C2.27306 50.7776 0.745999 46.7967 0.0413867 42.5883C0.13758 41.1349 -0.0884737 39.5274 0.0413867 38.0961C0.13277 37.0806 0.577658 35.3679 0.863831 34.3427C2.71314 27.7389 8.427 21.9474 14.9946 20.3008C15.235 11.2918 21.5285 3.05356 30.0944 0.797644C31.2343 0.496692 32.872 0.0978704 34.0143 0H37.0853H37.0805ZM35.4812 5.93339C27.6968 5.97744 21.1774 12.295 20.7685 20.22C20.6603 22.3291 21.5164 24.3771 18.9 25.3509C15.2278 26.7186 13.3521 26.4862 10.2306 29.6156C1.13798 38.7249 7.03941 54.2985 19.5132 55.2919H78.8354C92.1629 54.2887 97.4992 36.8115 86.8843 28.5243C84.4122 26.5938 82.9861 26.6305 80.4033 25.5491C78.15 24.6046 78.4313 22.4246 77.7772 20.406C74.396 9.96076 62.4273 5.19692 52.8152 10.2495C50.7398 11.3407 49.2753 13.418 46.8849 11.4092C46.4087 11.0104 46.2308 10.5137 45.822 10.1467C42.9097 7.52134 39.4588 5.90893 35.4812 5.93095V5.93339ZM9.78091 70.7701C4.31475 71.5555 4.66586 80.1412 10.3965 80.3932C17.1132 80.6868 16.8968 69.7473 9.78091 70.7701ZM86.9348 70.7701C81.4686 71.5555 81.8197 80.1412 87.5504 80.3932C94.2671 80.6868 94.0507 69.7473 86.9348 70.7701ZM48.3591 84.4475C42.8929 85.2329 43.244 93.8186 48.9747 94.0706C55.6914 94.3642 55.4749 83.4247 48.3591 84.4475Z" fill="#111111"/>
</svg>
