<svg width="88" height="100" viewBox="0 0 88 100" fill="none" xmlns="http://www.w3.org/2000/svg">
<path d="M75.1799 0.0731954C79.3088 0.566147 83.342 4.26179 84.552 8.16357C87.5366 17.8045 77.9196 26.1817 68.7566 22.3158L56.2775 40.3189C57.7235 41.9501 58.9932 44.0863 59.5579 46.2075C59.7461 46.9185 59.9821 49.6432 60.2988 49.8075L69.2257 51.5702C70.1578 50.8382 70.6089 49.688 71.5769 48.8365C76.4078 44.5792 84.2293 46.4345 86.4551 52.4844C89.7623 61.486 79.1743 68.922 71.7711 62.8692C69.7366 61.2051 68.9 58.83 68.3623 56.3294L59.5011 54.6683C58.5033 57.4228 56.872 59.8189 54.724 61.7997L66.7908 79.5549C67.1822 79.7968 68.9329 79.1276 69.623 79.0649C81.2955 77.9894 85.8247 93.1663 76.0941 98.5977C67.702 103.279 58.2762 95.4876 60.8814 86.3217C61.3235 84.7712 62.3602 83.7285 62.8532 82.3273L50.4696 64.2734C47.7898 65.1786 45.1518 65.4594 42.3494 64.9665C41.713 64.853 39.1676 63.9298 38.9137 64.0792L28.8037 78.4734C29.1532 79.5937 30.0824 80.6842 30.5245 81.8523C36.0635 96.5034 14.8487 105.619 7.9683 91.9115C2.47413 80.968 14.3647 69.7675 25.0244 75.4678L34.9432 61.244C30.3572 56.906 28.9441 50.0495 31.4238 44.2088L31.2834 43.8503L14.8577 31.1739C14.3557 31.0066 13.9763 31.5653 13.4983 31.7595C4.29656 35.5418 -3.72211 25.871 1.82583 17.9479C7.19451 10.2818 19.4406 14.7243 18.5832 24.5535C18.4906 25.5991 18.0544 26.3908 17.8781 27.3737L34.1186 40.0381C34.4204 40.0919 35.5885 38.6997 35.9619 38.4099C40.7122 34.7411 47.1086 34.3975 52.4176 37.1103L64.7533 19.7733C64.5232 18.7187 63.5463 17.8643 63.0384 16.7798C59.773 9.82168 63.9825 1.0113 71.8578 0.0672206C72.6166 -0.0224069 74.4151 -0.0224069 75.177 0.0672206L75.1799 0.0731954ZM72.5987 5.0057C64.8907 5.89002 64.8668 17.3235 72.3985 18.3572C82.4696 19.7405 82.6698 3.8495 72.5987 5.0057ZM8.58075 19.0443C3.52277 19.7733 3.81556 27.8129 9.34259 27.8876C15.4641 27.9742 15.2102 18.0883 8.58075 19.0443ZM37.9696 43.0496C28.8156 52.1976 42.0865 66.3408 51.7603 57.9038C62.2497 48.7588 47.6075 33.4176 37.9696 43.0496ZM80.9639 52.6098C77.1577 48.8037 70.9047 53.9901 74.203 58.4864C77.8329 63.4398 85.4483 57.0912 80.9639 52.6098ZM17.5525 78.9155C14.529 79.3846 11.891 82.4409 11.5743 85.4225C10.7258 93.3575 21.2481 96.8799 25.2963 90.3609C28.8336 84.6606 24.152 77.8908 17.5525 78.9155ZM70.8211 83.8211C63.2804 83.9078 63.3402 95.8939 71.7621 95.0544C78.3796 94.3972 78.048 83.7375 70.8211 83.8211Z" fill="#111111"/>
</svg>
