<svg width="85" height="100" viewBox="0 0 85 100" fill="none" xmlns="http://www.w3.org/2000/svg">
<path d="M43.6857 0L82.0977 15.9822C83.6633 16.5771 84.6575 17.7591 84.8975 19.4317C84.8245 33.5534 86.0117 46.8845 81.3853 60.453C75.851 76.683 61.5284 93.2392 45.2409 99.3111C42.7777 100.23 42.6394 100.23 40.1736 99.3111C23.8887 93.2392 9.56613 76.683 4.02912 60.453C-0.618094 46.8244 0.597857 33.4203 0.516968 19.2386C0.746589 17.6756 1.88165 16.5484 3.31678 15.9822L41.734 0H43.6884H43.6857ZM42.4672 8.23505L8.52501 22.3594L8.32409 22.9412C8.49891 32.6897 7.64305 42.386 9.79836 51.9596C13.7306 69.4447 26.2345 84.8111 42.7751 91.7519C59.2817 84.678 71.7882 69.3377 75.6605 51.7978C77.7819 42.1877 77.0069 32.2278 76.9939 22.4585L42.4672 8.23505Z" fill="#111111"/>
<path d="M57.1291 36.3585C61.1449 35.6748 63.4332 40.142 60.7013 43.054C54.0162 48.8311 47.9886 56.9435 41.267 62.4883C39.5813 63.8791 37.8801 64.1479 35.9909 62.8745C32.7762 58.9579 27.4532 55.2761 24.4629 51.3569C21.4465 47.4064 26.5086 42.6939 30.2321 45.9791L38.5037 54.0732L55.42 37.1883C55.8766 36.8203 56.5577 36.4576 57.1291 36.3611V36.3585Z" fill="#111111"/>
</svg>
